<?xml version="1.0" encoding="utf-8"?>
<!-- Generator: Adobe Illustrator 22.1.0, SVG Export Plug-In . SVG Version: 6.00 Build 0)  -->
<svg version="1.1" id="Layer_1" xmlns="http://www.w3.org/2000/svg" xmlns:xlink="http://www.w3.org/1999/xlink" x="0px" y="0px"
	 viewBox="0 0 100 100" style="enable-background:new 0 0 100 100;" xml:space="preserve">
<path d="M50,100C22.4,100,0,77.6,0,50C0,22.4,22.4,0,50,0c3.1,0,6.2,0.3,9.2,0.9c-0.6,2.4-0.9,4.9-0.9,7.5
	c0,18.4,14.9,33.3,33.3,33.3c2.6,0,5.1-0.3,7.5-0.9c0.6,3,0.9,6.1,0.9,9.2C100,77.6,77.6,100,50,100z M42.6,17.5
	C27.7,20.9,16.7,34.2,16.7,50c0,18.4,14.9,33.3,33.3,33.3c15.8,0,29.1-11.1,32.5-25.9C62.2,53.7,46.3,37.8,42.6,17.5z"/>
</svg>
