<?xml version="1.0" encoding="utf-8"?>
<!-- Generator: Adobe Illustrator 22.1.0, SVG Export Plug-In . SVG Version: 6.00 Build 0)  -->
<svg version="1.1" id="Layer_1" xmlns="http://www.w3.org/2000/svg" xmlns:xlink="http://www.w3.org/1999/xlink" x="0px" y="0px"
	 viewBox="0 0 100 100" style="enable-background:new 0 0 100 100;" xml:space="preserve">
<path d="M95.8,54.2h-8.3c-2.2,0-4.2-1.9-4.2-4.2s1.9-4.2,4.2-4.2h8.3c2.2,0,4.2,1.9,4.2,4.2S98.1,54.2,95.8,54.2z M79.4,26.4
	c-1.6,1.6-4.3,1.6-5.8,0c-1.6-1.6-1.6-4.3,0-5.8l5.8-5.8c1.6-1.6,4.3-1.6,5.8,0c1.6,1.6,1.6,4.3,0,5.8L79.4,26.4z M50,74.9
	c-13.8,0-25.1-11.2-25.1-24.9c0-13.8,11.2-25.1,25.1-25.1S74.9,36.2,74.9,50C75.1,63.8,63.8,74.9,50,74.9z M50,33.4
	c-9.2,0-16.6,7.4-16.6,16.6S40.8,66.6,50,66.6S66.6,59.2,66.6,50S59.2,33.4,50,33.4z M50,16.6c-2.2,0-4.2-1.9-4.2-4.2V4.2
	C45.8,1.9,47.8,0,50,0s4.2,1.9,4.2,4.2v8.3C54.2,14.8,52.2,16.6,50,16.6z M20.6,26.4l-5.8-5.8c-1.6-1.6-1.6-4.3,0-5.8
	c1.6-1.6,4.3-1.6,5.8,0l5.8,5.8c1.6,1.6,1.6,4.3,0,5.8C24.8,28.1,22.1,28.1,20.6,26.4z M16.6,50c0,2.2-1.9,4.2-4.2,4.2H4.2
	C1.9,54.2,0,52.2,0,50s1.9-4.2,4.2-4.2h8.3C14.8,45.8,16.6,47.8,16.6,50z M20.6,73.6c1.6-1.6,4.3-1.6,5.8,0c1.6,1.6,1.6,4.3,0,5.8
	l-5.8,5.8c-1.6,1.6-4.3,1.6-5.8,0c-1.6-1.6-1.6-4.3,0-5.8L20.6,73.6z M50,83.4c2.2,0,4.2,1.9,4.2,4.2v8.3c0,2.2-1.9,4.2-4.2,4.2
	s-4.2-1.9-4.2-4.2v-8.3C45.8,85.2,47.8,83.4,50,83.4z M79.4,73.6l5.8,5.8c1.6,1.6,1.6,4.3,0,5.8c-1.6,1.6-4.3,1.6-5.8,0l-5.8-5.8
	c-1.6-1.6-1.6-4.3,0-5.8C75.2,71.9,77.9,71.9,79.4,73.6z"/>
</svg>
