<?xml version="1.0" encoding="utf-8"?>
<!-- Generator: Adobe Illustrator 22.1.0, SVG Export Plug-In . SVG Version: 6.00 Build 0)  -->
<svg version="1.1" id="Layer_1" xmlns="http://www.w3.org/2000/svg" xmlns:xlink="http://www.w3.org/1999/xlink" x="0px" y="0px"
	 viewBox="0 0 100 100" style="enable-background:new 0 0 100 100;" xml:space="preserve">
<path d="M36.3,84C16.2,84-0.1,67.7-0.1,47.6s16.3-36.4,36.4-36.4c13.7,0,25.6,7.5,31.8,18.7c1.5-0.3,3-0.5,4.6-0.5
	c15.1,0,27.3,12.2,27.3,27.3C100,71.8,87.8,84,72.7,84C66.4,84,43.6,84,36.3,84z M72.7,74.9c10.1,0,18.2-8.2,18.2-18.2
	c0-10.1-8.2-18.2-18.2-18.2c-3.6,0-7,1.1-9.9,2.9C60,29.4,49.2,20.3,36.3,20.3C21.2,20.3,9,32.6,9,47.6c0,15.1,12.2,27.3,27.3,27.3
	C44.5,74.9,65.8,74.9,72.7,74.9z"/>
</svg>
