<?xml version="1.0" encoding="utf-8"?>
<!-- Generator: Adobe Illustrator 22.1.0, SVG Export Plug-In . SVG Version: 6.00 Build 0)  -->
<svg version="1.1" id="Layer_1" xmlns="http://www.w3.org/2000/svg" xmlns:xlink="http://www.w3.org/1999/xlink" x="0px" y="0px"
	 viewBox="0 0 100 100" style="enable-background:new 0 0 100 100;" xml:space="preserve">
<path d="M95.7,82.4c-2.3,0-4.3-1.9-4.3-4.3c0-2.3,1.9-4.3,4.3-4.3c2.3,0,4.3,1.9,4.3,4.3C100,80.5,98.1,82.4,95.7,82.4z M76.6,68.1
	v-9.3c5.1-2.9,8.5-8.4,8.5-14.7c0-9.4-7.6-17-17-17c-3.4,0-6.6,1-9.2,2.7C56.2,18.5,46.2,10,34,10C19.9,10,8.5,21.4,8.5,35.5
	c0,7.6,3.3,14.3,8.5,19V65C6.9,59.1,0,48.1,0,35.5c0-18.8,15.2-34,34-34c12.8,0,23.9,7,29.7,17.5c1.4-0.2,2.8-0.4,4.3-0.4
	c14.1,0,25.5,11.4,25.5,25.5C93.6,55.2,86.5,64.6,76.6,68.1z M6.4,84.5c2.3,0,4.3,1.9,4.3,4.3c0,2.3-1.9,4.3-4.3,4.3
	s-4.3-1.9-4.3-4.3C2.1,86.4,4,84.5,6.4,84.5z M27.7,48.3c0-2.3-0.2-4.3,2.1-4.3s2.1,1.9,2.1,4.3v51.1h-4.3l0,0l0,0
	c0-4.7-3.8-8.5-8.5-8.5v-4.3c3.3,0,6.2,1.3,8.5,3.3V48.3z M46.8,78.1c-2.3,0-2.1-1.9-2.1-4.3v-17c0-2.4-0.2-4.3,2.1-4.3
	c2.3,0,2.1,1.9,2.1,4.3v17C48.9,76.2,49.2,78.1,46.8,78.1z M46.8,86.6c2.3,0,4.3,1.9,4.3,4.3c0,2.3-1.9,4.3-4.3,4.3
	c-2.3,0-4.3-1.9-4.3-4.3C42.6,88.5,44.5,86.6,46.8,86.6z M63.8,44.1c2.3,0,2.1,1.9,2.1,4.3v38.3c3.9-5.2,10.1-8.6,17-8.6v4.3
	c-9.4,0-17,7.6-17,17h-4.3c0-0.6,0-1.2,0.1-1.7c-0.1-0.7-0.1-1.6-0.1-2.5V48.3C61.7,46,61.5,44.1,63.8,44.1z"/>
</svg>
