<?xml version="1.0" encoding="utf-8"?>
<!-- Generator: Adobe Illustrator 22.1.0, SVG Export Plug-In . SVG Version: 6.00 Build 0)  -->
<svg version="1.1" id="Layer_1" xmlns="http://www.w3.org/2000/svg" xmlns:xlink="http://www.w3.org/1999/xlink" x="0px" y="0px"
	 viewBox="0 0 100 100" style="enable-background:new 0 0 100 100;" xml:space="preserve">
<path d="M50,100c27.6,0,50-22.4,50-50c0-27.6-22.4-50-50-50C22.4,0,0,22.4,0,50C0,77.6,22.4,100,50,100z M41.7,17.8
	c2.7-0.7,5.5-1.1,8.3-1.1c18.4,0,33.3,14.9,33.3,33.3c0,18.4-14.9,33.3-33.3,33.3c-2.9,0-5.7-0.4-8.3-1.1c14.4-3.7,25-16.7,25-32.2
	C66.7,34.5,56,21.5,41.7,17.8z"/>
</svg>
