<?xml version="1.0" encoding="utf-8"?>
<!-- Generator: Adobe Illustrator 22.1.0, SVG Export Plug-In . SVG Version: 6.00 Build 0)  -->
<svg version="1.1" id="Layer_1" xmlns="http://www.w3.org/2000/svg" xmlns:xlink="http://www.w3.org/1999/xlink" x="0px" y="0px"
	 viewBox="0 0 100 100" style="enable-background:new 0 0 100 100;" xml:space="preserve">
<path d="M93,50.1L93,50.1c3.1,4.4,4.8,9.6,4.8,15.3c0,14.7-11.9,26.6-26.6,26.6c-6.1,0-28.5,0-35.6,0C16,92.1,0,76.2,0,56.5
	s15.9-35.6,35.6-35.6c4.5,0,8.7,0.9,12.6,2.3l0,0C51.8,12.8,61.7,5.3,73.4,5.3c1.6,0,3.3,0.2,4.9,0.4c-0.3,1.3-0.4,2.6-0.4,3.9
	c0,9.9,8,17.7,17.7,17.7c1.3,0,2.7-0.2,3.9-0.4c0.3,1.6,0.4,3.2,0.4,4.9C100.1,39.1,97.4,45.4,93,50.1z M9,56.6
	c0,14.7,11.9,26.6,26.6,26.6c8,0,28.8,0,35.6,0c9.9,0,17.7-8,17.7-17.7c0-9.9-8-17.7-17.7-17.7c-3.5,0-6.9,1.1-9.6,2.8
	c-2.7-11.8-13.3-20.7-26-20.7C20.9,29.9,9,41.8,9,56.6z M52.5,25.3L52.5,25.3L52.5,25.3z M69.4,14.9c-6.5,1.4-11.5,6.5-13.1,12.8
	l0,0c4.3,3.1,7.8,7,10.4,11.6c1.4-0.2,3-0.4,4.5-0.4c5.8,0,11.2,1.9,15.6,5l0,0c1.9-2.2,3.3-4.8,3.9-7.8
	C80,34.1,71.4,25.6,69.4,14.9z"/>
</svg>
