<?xml version="1.0" encoding="utf-8"?>
<!-- Generator: Adobe Illustrator 22.1.0, SVG Export Plug-In . SVG Version: 6.00 Build 0)  -->
<svg version="1.1" id="Layer_1" xmlns="http://www.w3.org/2000/svg" xmlns:xlink="http://www.w3.org/1999/xlink" x="0px" y="0px"
	 viewBox="0 0 100 100" style="enable-background:new 0 0 100 100;" xml:space="preserve">
<path d="M96.3,51.3h-7.4c-2,0-3.7-1.7-3.7-3.7c0-2,1.7-3.7,3.7-3.7h7.4c2,0,3.7,1.7,3.7,3.7C100,49.7,98.3,51.3,96.3,51.3z
	 M81.7,26.7c-1.4,1.4-3.8,1.4-5.2,0c-1.4-1.4-1.4-3.8,0-5.2l5.2-5.2c1.4-1.4,3.8-1.4,5.2,0c1.4,1.4,1.4,3.8,0,5.2L81.7,26.7z
	 M76.3,55.6L76.3,55.6c3.2,3.9,5.2,8.8,5.2,14.3c0,12.3-9.9,22.2-22.2,22.2c-5.1,0-23.7,0-29.6,0C13.3,92.1,0,78.8,0,62.5
	s13.3-29.6,29.6-29.6c2.9,0,5.7,0.4,8.4,1.2c4.1-5.2,10.4-8.6,17.5-8.6c12.3,0,22.2,10,22.2,22.2C77.8,50.4,77.2,53.1,76.3,55.6z
	 M7.4,62.5c0,12.3,9.9,22.2,22.2,22.2c6.7,0,24,0,29.6,0c8.2,0,14.8-6.6,14.8-14.8c0-8.2-6.6-14.8-14.8-14.8c-3,0-5.7,0.9-8,2.4
	C49,47.6,40.2,40.2,29.6,40.2C17.4,40.2,7.4,50.2,7.4,62.5z M55.6,32.8c-4.1,0-7.8,1.7-10.5,4.4c4.3,2.7,7.9,6.4,10.4,10.8
	c1.2-0.2,2.5-0.4,3.8-0.4c3.9,0,7.6,1,10.8,2.8l0,0c0.2-0.9,0.3-1.9,0.3-2.8C70.4,39.5,63.7,32.8,55.6,32.8z M55.6,18
	c-2,0-3.7-1.7-3.7-3.7V6.9c0-2,1.7-3.7,3.7-3.7c2,0,3.7,1.7,3.7,3.7v7.4C59.3,16.4,57.6,18,55.6,18z M29.4,26.7l-5.2-5.2
	c-1.4-1.4-1.4-3.8,0-5.2c1.4-1.4,3.8-1.4,5.2,0l5.2,5.2c1.4,1.4,1.4,3.8,0,5.2C33.2,28.1,30.8,28.1,29.4,26.7z"/>
</svg>
