<?xml version="1.0" encoding="utf-8"?>
<!-- Generator: Adobe Illustrator 22.1.0, SVG Export Plug-In . SVG Version: 6.00 Build 0)  -->
<svg version="1.1" id="Layer_1" xmlns="http://www.w3.org/2000/svg" xmlns:xlink="http://www.w3.org/1999/xlink" x="0px" y="0px"
	 viewBox="0 0 100 100" style="enable-background:new 0 0 100 100;" xml:space="preserve">
<path d="M81.9,71v-9.9c5.4-3.2,9-9,9-15.7c0-10-8.2-18.2-18.2-18.2c-3.6,0-7,1.1-9.8,2.9C60.1,18.1,49.3,9,36.4,9
	C21.4,9,9.2,21.2,9.2,36.3c0,8.1,3.5,15.3,9,20.3v11.2C7.4,61.4,0.1,49.8,0.1,36.3C0.2,16.2,16.4,0,36.4,0
	c13.6,0,25.5,7.5,31.7,18.6c1.5-0.2,3.1-0.4,4.6-0.4c15,0,27.2,12.2,27.2,27.2C100.1,57.3,92.5,67.3,81.9,71z M32,45.4
	c2.5,0,4.6,2.1,4.6,4.6v36.3c0,2.5-2.1,4.6-4.6,4.6s-4.6-2.1-4.6-4.6V49.9C27.4,47.4,29.5,45.4,32,45.4z M50.1,54.5
	c2.5,0,4.6,2.1,4.6,4.6v36.4c0,2.5-2.1,4.6-4.6,4.6c-2.5,0-4.6-2.1-4.6-4.6V59C45.6,56.5,47.5,54.5,50.1,54.5z M68.2,45.4
	c2.5,0,4.6,2.1,4.6,4.6v36.3c0,2.5-2.1,4.6-4.6,4.6s-4.6-2.1-4.6-4.6V49.9C63.8,47.4,65.7,45.4,68.2,45.4z"/>
</svg>
