<?xml version="1.0" encoding="utf-8"?>
<!-- Generator: Adobe Illustrator 22.1.0, SVG Export Plug-In . SVG Version: 6.00 Build 0)  -->
<svg version="1.1" id="Layer_1" xmlns="http://www.w3.org/2000/svg" xmlns:xlink="http://www.w3.org/1999/xlink" x="0px" y="0px"
	 viewBox="0 0 100 100" style="enable-background:new 0 0 100 100;" xml:space="preserve">
<path d="M81.8,75.9V66c5.4-3.1,9.1-9,9.1-15.7c0-10-8.1-18.2-18.2-18.2c-3.6,0-7,1.1-9.8,2.9c-2.8-12.1-13.6-21.1-26.5-21.1
	c-15.1,0-27.3,12.2-27.3,27.3c0,8.1,3.5,15.3,9.1,20.3v11.2C7.3,66.3,0,54.6,0,41.2C0,21.1,16.3,4.8,36.4,4.8
	c13.6,0,25.5,7.5,31.7,18.6c1.5-0.3,3-0.5,4.6-0.5C87.8,23,100,35.2,100,50.2C100,62.1,92.4,72.2,81.8,75.9z M31.8,59.3
	c2.5,0,4.5,2,4.5,4.5c0,2.5-2,4.5-4.5,4.5c-2.5,0-4.5-2-4.5-4.5C27.3,61.4,29.3,59.3,31.8,59.3z M31.8,77.5c2.5,0,4.5,2,4.5,4.5
	c0,2.5-2,4.5-4.5,4.5c-2.5,0-4.5-2-4.5-4.5C27.3,79.5,29.3,77.5,31.8,77.5z M50,68.4c2.5,0,4.5,2,4.5,4.5c0,2.5-2,4.5-4.5,4.5
	c-2.5,0-4.5-2-4.5-4.5C45.5,70.5,47.5,68.4,50,68.4z M50,86.6c2.5,0,4.5,2,4.5,4.5c0,2.5-2,4.5-4.5,4.5c-2.5,0-4.5-2-4.5-4.5
	C45.5,88.6,47.5,86.6,50,86.6z M68.2,59.3c2.5,0,4.5,2,4.5,4.5c0,2.5-2,4.5-4.5,4.5c-2.5,0-4.5-2-4.5-4.5
	C63.6,61.4,65.7,59.3,68.2,59.3z M68.2,77.5c2.5,0,4.5,2,4.5,4.5c0,2.5-2,4.5-4.5,4.5c-2.5,0-4.5-2-4.5-4.5
	C63.6,79.5,65.7,77.5,68.2,77.5z"/>
</svg>
