<?xml version="1.0" encoding="utf-8"?>
<!-- Generator: Adobe Illustrator 22.1.0, SVG Export Plug-In . SVG Version: 6.00 Build 0)  -->
<svg version="1.1" id="Layer_1" xmlns="http://www.w3.org/2000/svg" xmlns:xlink="http://www.w3.org/1999/xlink" x="0px" y="0px"
	 viewBox="0 0 100 100" style="enable-background:new 0 0 100 100;" xml:space="preserve">
<path d="M72.6,72.9c-0.6,0-1.5,0-2.4,0l8.1-10c7.2-2.4,12.4-9.2,12.4-17.2c0-10-8.1-18.1-18.1-18.1c-3.6,0-7,1.1-9.8,2.9
	c-2.8-12-13.5-21-26.4-21c-15,0-27.1,12.2-27.1,27.1c0,12.3,8.2,22.7,19.5,26l-3.1,8.5C11,66.7,0.2,52.9,0.2,36.7
	c0-20,16.2-36.2,36.2-36.2C50,0.5,61.8,8,68,19c1.5-0.3,3-0.5,4.6-0.5c15,0,27.1,12.1,27.1,27.1S87.6,72.9,72.6,72.9z M45.5,41.2
	h22.6L54.5,63.8h15.8L41,100l8.1-27.1H34.2L45.5,41.2z"/>
</svg>
