<?xml version="1.0" encoding="utf-8"?>
<!-- Generator: Adobe Illustrator 22.1.0, SVG Export Plug-In . SVG Version: 6.00 Build 0)  -->
<svg version="1.1" id="Layer_1" xmlns="http://www.w3.org/2000/svg" xmlns:xlink="http://www.w3.org/1999/xlink" x="0px" y="0px"
	 viewBox="0 0 100 100" style="enable-background:new 0 0 100 100;" xml:space="preserve">
<path d="M95.2,17.1H4.8C2.1,17.1,0,15,0,12.4c0-2.6,2.1-4.8,4.8-4.8h90.5c2.6,0,4.8,2.1,4.8,4.8C100,15,97.9,17.1,95.2,17.1z
	 M9.5,26.6H81c2.6,0,4.8,2.1,4.8,4.8s-2.1,4.8-4.8,4.8H9.5c-2.6,0-4.8-2.1-4.8-4.8C4.8,28.8,6.9,26.6,9.5,26.6z M38.1,45.7h52.4
	c2.6,0,4.8,2.1,4.8,4.8c0,2.6-2.1,4.8-4.8,4.8H38.1c-2.6,0-4.8-2.1-4.8-4.8C33.3,47.8,35.5,45.7,38.1,45.7z M42.9,83.8h14.3
	c2.6,0,4.8,2.1,4.8,4.8c0,2.6-2.1,4.8-4.8,4.8H42.9c-2.6,0-4.8-2.1-4.8-4.8C38.1,85.9,40.2,83.8,42.9,83.8z M45.2,69.5
	c0-2.6,2.1-4.8,4.8-4.8h33.3c2.6,0,4.8,2.1,4.8,4.8c0,2.6-2.1,4.8-4.8,4.8H50C47.4,74.3,45.2,72.1,45.2,69.5z"/>
</svg>
