<?xml version="1.0" encoding="utf-8"?><svg xmlns="http://www.w3.org/2000/svg" xmlns:xlink="http://www.w3.org/1999/xlink"><symbol viewBox="0 0 24 24" id="alert-advisory" xmlns="http://www.w3.org/2000/svg"><g xmlns="http://www.w3.org/2000/svg"><path d="M12 24C5.4 24 0 18.6 0 12S5.4 0 12 0s12 5.4 12 12-5.4 12-12 12zm0-22C6.5 2 2 6.5 2 12s4.5 10 10 10 10-4.5 10-10S17.5 2 12 2z"/><path d="M11 18c-.4 0-.7-.2-1-.5-.5-.7-.1-1.7 1-4.4.2-.4.4-.9.6-1.3-.4.3-1 .3-1.4-.1-.4-.4-.4-1 0-1.4.2-.1 1.4-1.3 2.8-1.3.4 0 .7.2 1 .5.5.7.1 1.7-1 4.4-.2.4-.4.9-.6 1.3.4-.3 1-.3 1.4.1.4.4.4 1 0 1.4-.2.1-1.4 1.3-2.8 1.3z"/><circle cx="13.5" cy="6.5" r="1.5"/><path d="M13.5 8.5c-1.1 0-2-.9-2-2s.9-2 2-2 2 .9 2 2-.9 2-2 2zm0-3c-.6 0-1 .4-1 1s.4 1 1 1 1-.4 1-1-.4-1-1-1z"/></g></symbol><symbol viewBox="0 0 24 24" id="alert-warning" xmlns="http://www.w3.org/2000/svg"><g xmlns="http://www.w3.org/2000/svg"><path d="M12 24C5.4 24 0 18.6 0 12S5.4 0 12 0s12 5.4 12 12-5.4 12-12 12zm0-22C6.5 2 2 6.5 2 12s4.5 10 10 10 10-4.5 10-10S17.5 2 12 2z"/><path d="M8 17c-.3 0-.5-.1-.7-.3-.4-.4-.4-1 0-1.4l8-8c.4-.4 1-.4 1.4 0s.4 1 0 1.4l-8 8c-.2.2-.4.3-.7.3z"/><path d="M16 17c-.3 0-.5-.1-.7-.3l-8-8c-.4-.4-.4-1 0-1.4s1-.4 1.4 0l8 8c.4.4.4 1 0 1.4-.2.2-.4.3-.7.3z"/></g></symbol><symbol viewBox="0 0 24 24" id="alert-watch" xmlns="http://www.w3.org/2000/svg"><g xmlns="http://www.w3.org/2000/svg"><path d="M23 23H1c-.4 0-.7-.2-.9-.5-.2-.3-.2-.7 0-1l11-20c.4-.6 1.4-.6 1.8 0l11 20c.2.3.2.7 0 1-.2.3-.5.5-.9.5zM2.7 21h18.6L12 4.1 2.7 21z"/><path d="M12 16c-.6 0-1-.4-1-1v-5c0-.6.4-1 1-1s1 .4 1 1v5c0 .6-.4 1-1 1z"/><circle cx="12" cy="18" r="1"/><path d="M12 19.5c-.8 0-1.5-.7-1.5-1.5s.7-1.5 1.5-1.5 1.5.7 1.5 1.5-.7 1.5-1.5 1.5zm0-2c-.3 0-.5.2-.5.5s.2.5.5.5.5-.2.5-.5-.2-.5-.5-.5z"/></g></symbol><symbol viewBox="0 0 100 100" id="clear-day" xmlns="http://www.w3.org/2000/svg"><path d="M95.8 54.2h-8.3c-2.2 0-4.2-1.9-4.2-4.2s1.9-4.2 4.2-4.2h8.3c2.2 0 4.2 1.9 4.2 4.2s-1.9 4.2-4.2 4.2zM79.4 26.4c-1.6 1.6-4.3 1.6-5.8 0-1.6-1.6-1.6-4.3 0-5.8l5.8-5.8c1.6-1.6 4.3-1.6 5.8 0 1.6 1.6 1.6 4.3 0 5.8l-5.8 5.8zM50 74.9c-13.8 0-25.1-11.2-25.1-24.9 0-13.8 11.2-25.1 25.1-25.1S74.9 36.2 74.9 50c.2 13.8-11.1 24.9-24.9 24.9zm0-41.5c-9.2 0-16.6 7.4-16.6 16.6S40.8 66.6 50 66.6 66.6 59.2 66.6 50 59.2 33.4 50 33.4zm0-16.8c-2.2 0-4.2-1.9-4.2-4.2V4.2c0-2.3 2-4.2 4.2-4.2s4.2 1.9 4.2 4.2v8.3c0 2.3-2 4.1-4.2 4.1zm-29.4 9.8l-5.8-5.8c-1.6-1.6-1.6-4.3 0-5.8 1.6-1.6 4.3-1.6 5.8 0l5.8 5.8c1.6 1.6 1.6 4.3 0 5.8-1.6 1.7-4.3 1.7-5.8 0zm-4 23.6c0 2.2-1.9 4.2-4.2 4.2H4.2c-2.3 0-4.2-2-4.2-4.2s1.9-4.2 4.2-4.2h8.3c2.3 0 4.1 2 4.1 4.2zm4 23.6c1.6-1.6 4.3-1.6 5.8 0 1.6 1.6 1.6 4.3 0 5.8l-5.8 5.8c-1.6 1.6-4.3 1.6-5.8 0-1.6-1.6-1.6-4.3 0-5.8l5.8-5.8zM50 83.4c2.2 0 4.2 1.9 4.2 4.2v8.3c0 2.2-1.9 4.2-4.2 4.2s-4.2-1.9-4.2-4.2v-8.3c0-2.4 2-4.2 4.2-4.2zm29.4-9.8l5.8 5.8c1.6 1.6 1.6 4.3 0 5.8-1.6 1.6-4.3 1.6-5.8 0l-5.8-5.8c-1.6-1.6-1.6-4.3 0-5.8 1.6-1.7 4.3-1.7 5.8 0z"/></symbol><symbol viewBox="0 0 100 100" id="clear-night" xmlns="http://www.w3.org/2000/svg"><path d="M50 100C22.4 100 0 77.6 0 50S22.4 0 50 0c3.1 0 6.2.3 9.2.9-.6 2.4-.9 4.9-.9 7.5 0 18.4 14.9 33.3 33.3 33.3 2.6 0 5.1-.3 7.5-.9.6 3 .9 6.1.9 9.2 0 27.6-22.4 50-50 50zm-7.4-82.5C27.7 20.9 16.7 34.2 16.7 50c0 18.4 14.9 33.3 33.3 33.3 15.8 0 29.1-11.1 32.5-25.9-20.3-3.7-36.2-19.6-39.9-39.9z"/></symbol><symbol viewBox="0 0 100 100" id="cloudy" xmlns="http://www.w3.org/2000/svg"><path d="M36.3 84C16.2 84-.1 67.7-.1 47.6s16.3-36.4 36.4-36.4c13.7 0 25.6 7.5 31.8 18.7 1.5-.3 3-.5 4.6-.5 15.1 0 27.3 12.2 27.3 27.3C100 71.8 87.8 84 72.7 84H36.3zm36.4-9.1c10.1 0 18.2-8.2 18.2-18.2 0-10.1-8.2-18.2-18.2-18.2-3.6 0-7 1.1-9.9 2.9-2.8-12-13.6-21.1-26.5-21.1C21.2 20.3 9 32.6 9 47.6c0 15.1 12.2 27.3 27.3 27.3h36.4z"/></symbol><symbol viewBox="0 0 100 100" id="fog" xmlns="http://www.w3.org/2000/svg"><path d="M2.7 64.6c-.6-1.5-1.1-3-1.5-4.5H100c0 1.6-.2 3.1-.4 4.5H2.7zm16.1-45.5c5.2-2.9 11.2-4.5 17.6-4.5 6.4 0 12.4 1.7 17.6 4.5H18.8zM.3 46.4c.2-1.6.5-3.1.9-4.5H93c1.3 1.4 2.4 2.9 3.3 4.5H.3zm2.4-9.1c.6-1.6 1.4-3.1 2.2-4.5h62.9c.1.2.2.3.3.5 1.5-.3 3-.5 4.6-.5 5.6 0 10.7 1.7 15.1 4.5H2.7zM8 28.2c1.3-1.6 2.8-3.2 4.4-4.5h48c1.6 1.4 3 2.9 4.3 4.5H8zm91.6 27.3H.3c-.2-1.5-.3-3-.3-4.6h98.4c.5 1.5.9 3 1.2 4.6zm-1.2 13.6c-.6 1.6-1.3 3.1-2.1 4.5H8c-1.1-1.4-2.2-3-3.1-4.5h93.5zm-86 9.1H93c-1.5 1.7-3.3 3.3-5.2 4.5h-69c-2.3-1.2-4.5-2.8-6.4-4.5z"/></symbol><symbol viewBox="0 0 100 100" id="hail" xmlns="http://www.w3.org/2000/svg"><path d="M95.7 82.4c-2.3 0-4.3-1.9-4.3-4.3 0-2.3 1.9-4.3 4.3-4.3 2.3 0 4.3 1.9 4.3 4.3s-1.9 4.3-4.3 4.3zM76.6 68.1v-9.3c5.1-2.9 8.5-8.4 8.5-14.7 0-9.4-7.6-17-17-17-3.4 0-6.6 1-9.2 2.7C56.2 18.5 46.2 10 34 10 19.9 10 8.5 21.4 8.5 35.5c0 7.6 3.3 14.3 8.5 19V65C6.9 59.1 0 48.1 0 35.5c0-18.8 15.2-34 34-34 12.8 0 23.9 7 29.7 17.5 1.4-.2 2.8-.4 4.3-.4 14.1 0 25.5 11.4 25.5 25.5.1 11.1-7 20.5-16.9 24zM6.4 84.5c2.3 0 4.3 1.9 4.3 4.3 0 2.3-1.9 4.3-4.3 4.3s-4.3-1.9-4.3-4.3 1.9-4.3 4.3-4.3zm21.3-36.2c0-2.3-.2-4.3 2.1-4.3s2.1 1.9 2.1 4.3v51.1h-4.3c0-4.7-3.8-8.5-8.5-8.5v-4.3c3.3 0 6.2 1.3 8.5 3.3V48.3zm19.1 29.8c-2.3 0-2.1-1.9-2.1-4.3v-17c0-2.4-.2-4.3 2.1-4.3 2.3 0 2.1 1.9 2.1 4.3v17c0 2.4.3 4.3-2.1 4.3zm0 8.5c2.3 0 4.3 1.9 4.3 4.3 0 2.3-1.9 4.3-4.3 4.3-2.3 0-4.3-1.9-4.3-4.3.1-2.4 2-4.3 4.3-4.3zm17-42.5c2.3 0 2.1 1.9 2.1 4.3v38.3c3.9-5.2 10.1-8.6 17-8.6v4.3c-9.4 0-17 7.6-17 17h-4.3c0-.6 0-1.2.1-1.7-.1-.7-.1-1.6-.1-2.5V48.3c.1-2.3-.1-4.2 2.2-4.2z"/></symbol><symbol viewBox="0 0 100 100" id="moon-first-quarter" xmlns="http://www.w3.org/2000/svg"><path d="M50 100C22.4 100 0 77.6 0 50S22.4 0 50 0s50 22.4 50 50-22.4 50-50 50zm0-16.7c18.4 0 33.3-14.9 33.3-33.3S68.4 16.7 50 16.7v66.6z"/></symbol><symbol viewBox="0 0 100 100" id="moon-full" xmlns="http://www.w3.org/2000/svg"><path d="M50 100C22.4 100 0 77.6 0 50S22.4 0 50 0s50 22.4 50 50-22.4 50-50 50zm0-83.3c-18.4 0-33.3 14.9-33.3 33.3S31.6 83.3 50 83.3 83.3 68.4 83.3 50 68.4 16.7 50 16.7z"/></symbol><symbol viewBox="0 0 100 100" id="moon-last-quarter" xmlns="http://www.w3.org/2000/svg"><path d="M50 100c27.6 0 50-22.4 50-50S77.6 0 50 0 0 22.4 0 50s22.4 50 50 50zm0-16.7c-18.4 0-33.3-14.9-33.3-33.3S31.6 16.7 50 16.7v66.6z"/></symbol><symbol viewBox="0 0 100 100" id="moon-new" xmlns="http://www.w3.org/2000/svg"><path d="M50 100C22.4 100 0 77.6 0 50S22.4 0 50 0s50 22.4 50 50-22.4 50-50 50z"/></symbol><symbol viewBox="0 0 100 100" id="moon-waning-crescent" xmlns="http://www.w3.org/2000/svg"><path d="M50 100C22.4 100 0 77.6 0 50S22.4 0 50 0s50 22.4 50 50-22.4 50-50 50zm8.3-82.2c-2.7-.7-5.5-1.1-8.3-1.1-18.4 0-33.3 14.9-33.3 33.3S31.6 83.3 50 83.3c2.9 0 5.7-.4 8.3-1.1-14.4-3.7-25-16.7-25-32.2s10.7-28.5 25-32.2z"/></symbol><symbol viewBox="0 0 100 100" id="moon-waning-gibbous" xmlns="http://www.w3.org/2000/svg"><path d="M50 100c27.6 0 50-22.4 50-50S77.6 0 50 0 0 22.4 0 50s22.4 50 50 50zm0-83.3c9.2 0 16.7 14.9 16.7 33.3S59.2 83.3 50 83.3c-18.4 0-33.3-14.9-33.3-33.3S31.6 16.7 50 16.7z"/></symbol><symbol viewBox="0 0 100 100" id="moon-waxing-crescent" xmlns="http://www.w3.org/2000/svg"><path d="M50 100c27.6 0 50-22.4 50-50S77.6 0 50 0 0 22.4 0 50s22.4 50 50 50zm-8.3-82.2c2.7-.7 5.5-1.1 8.3-1.1 18.4 0 33.3 14.9 33.3 33.3S68.4 83.3 50 83.3c-2.9 0-5.7-.4-8.3-1.1 14.4-3.7 25-16.7 25-32.2 0-15.5-10.7-28.5-25-32.2z"/></symbol><symbol viewBox="0 0 100 100" id="moon-waxing-gibbous" xmlns="http://www.w3.org/2000/svg"><path d="M50 100C22.4 100 0 77.6 0 50S22.4 0 50 0s50 22.4 50 50-22.4 50-50 50zm0-83.3c-9.2 0-16.7 14.9-16.7 33.3S40.8 83.3 50 83.3c18.4 0 33.3-14.9 33.3-33.3S68.4 16.7 50 16.7z"/></symbol><symbol viewBox="0 0 100 100" id="partly-cloudy-day" xmlns="http://www.w3.org/2000/svg"><path d="M96.3 51.3h-7.4c-2 0-3.7-1.7-3.7-3.7s1.7-3.7 3.7-3.7h7.4c2 0 3.7 1.7 3.7 3.7 0 2.1-1.7 3.7-3.7 3.7zM81.7 26.7c-1.4 1.4-3.8 1.4-5.2 0-1.4-1.4-1.4-3.8 0-5.2l5.2-5.2c1.4-1.4 3.8-1.4 5.2 0 1.4 1.4 1.4 3.8 0 5.2l-5.2 5.2zm-5.4 28.9c3.2 3.9 5.2 8.8 5.2 14.3 0 12.3-9.9 22.2-22.2 22.2H29.7C13.3 92.1 0 78.8 0 62.5s13.3-29.6 29.6-29.6c2.9 0 5.7.4 8.4 1.2 4.1-5.2 10.4-8.6 17.5-8.6 12.3 0 22.2 10 22.2 22.2.1 2.7-.5 5.4-1.4 7.9zM7.4 62.5c0 12.3 9.9 22.2 22.2 22.2h29.6c8.2 0 14.8-6.6 14.8-14.8 0-8.2-6.6-14.8-14.8-14.8-3 0-5.7.9-8 2.4-2.2-9.9-11-17.3-21.6-17.3-12.2 0-22.2 10-22.2 22.3zm48.2-29.7c-4.1 0-7.8 1.7-10.5 4.4 4.3 2.7 7.9 6.4 10.4 10.8 1.2-.2 2.5-.4 3.8-.4 3.9 0 7.6 1 10.8 2.8.2-.9.3-1.9.3-2.8 0-8.1-6.7-14.8-14.8-14.8zm0-14.8c-2 0-3.7-1.7-3.7-3.7V6.9c0-2 1.7-3.7 3.7-3.7s3.7 1.7 3.7 3.7v7.4c0 2.1-1.7 3.7-3.7 3.7zm-26.2 8.7l-5.2-5.2c-1.4-1.4-1.4-3.8 0-5.2 1.4-1.4 3.8-1.4 5.2 0l5.2 5.2c1.4 1.4 1.4 3.8 0 5.2-1.4 1.4-3.8 1.4-5.2 0z"/></symbol><symbol viewBox="0 0 100 100" id="partly-cloudy-night" xmlns="http://www.w3.org/2000/svg"><path d="M93 50.1c3.1 4.4 4.8 9.6 4.8 15.3C97.8 80.1 85.9 92 71.2 92H35.6C16 92.1 0 76.2 0 56.5s15.9-35.6 35.6-35.6c4.5 0 8.7.9 12.6 2.3C51.8 12.8 61.7 5.3 73.4 5.3c1.6 0 3.3.2 4.9.4-.3 1.3-.4 2.6-.4 3.9 0 9.9 8 17.7 17.7 17.7 1.3 0 2.7-.2 3.9-.4.3 1.6.4 3.2.4 4.9.2 7.3-2.5 13.6-6.9 18.3zM9 56.6c0 14.7 11.9 26.6 26.6 26.6h35.6c9.9 0 17.7-8 17.7-17.7 0-9.9-8-17.7-17.7-17.7-3.5 0-6.9 1.1-9.6 2.8-2.7-11.8-13.3-20.7-26-20.7C20.9 29.9 9 41.8 9 56.6zm43.5-31.3zm16.9-10.4c-6.5 1.4-11.5 6.5-13.1 12.8 4.3 3.1 7.8 7 10.4 11.6 1.4-.2 3-.4 4.5-.4 5.8 0 11.2 1.9 15.6 5 1.9-2.2 3.3-4.8 3.9-7.8-10.7-2-19.3-10.5-21.3-21.2z"/></symbol><symbol viewBox="0 0 100 100" id="rain" xmlns="http://www.w3.org/2000/svg"><path d="M81.9 71v-9.9c5.4-3.2 9-9 9-15.7 0-10-8.2-18.2-18.2-18.2-3.6 0-7 1.1-9.8 2.9C60.1 18.1 49.3 9 36.4 9 21.4 9 9.2 21.2 9.2 36.3c0 8.1 3.5 15.3 9 20.3v11.2C7.4 61.4.1 49.8.1 36.3.2 16.2 16.4 0 36.4 0 50 0 61.9 7.5 68.1 18.6c1.5-.2 3.1-.4 4.6-.4 15 0 27.2 12.2 27.2 27.2.2 11.9-7.4 21.9-18 25.6zM32 45.4c2.5 0 4.6 2.1 4.6 4.6v36.3c0 2.5-2.1 4.6-4.6 4.6s-4.6-2.1-4.6-4.6V49.9c0-2.5 2.1-4.5 4.6-4.5zm18.1 9.1c2.5 0 4.6 2.1 4.6 4.6v36.4c0 2.5-2.1 4.6-4.6 4.6-2.5 0-4.6-2.1-4.6-4.6V59c.1-2.5 2-4.5 4.6-4.5zm18.1-9.1c2.5 0 4.6 2.1 4.6 4.6v36.3c0 2.5-2.1 4.6-4.6 4.6s-4.6-2.1-4.6-4.6V49.9c.2-2.5 2.1-4.5 4.6-4.5z"/></symbol><symbol viewBox="0 0 100 100" id="snow" xmlns="http://www.w3.org/2000/svg"><path d="M81.8 75.9V66c5.4-3.1 9.1-9 9.1-15.7 0-10-8.1-18.2-18.2-18.2-3.6 0-7 1.1-9.8 2.9-2.8-12.1-13.6-21.1-26.5-21.1-15.1 0-27.3 12.2-27.3 27.3 0 8.1 3.5 15.3 9.1 20.3v11.2C7.3 66.3 0 54.6 0 41.2 0 21.1 16.3 4.8 36.4 4.8c13.6 0 25.5 7.5 31.7 18.6 1.5-.3 3-.5 4.6-.5C87.8 23 100 35.2 100 50.2c0 11.9-7.6 22-18.2 25.7zm-50-16.6c2.5 0 4.5 2 4.5 4.5s-2 4.5-4.5 4.5-4.5-2-4.5-4.5c0-2.4 2-4.5 4.5-4.5zm0 18.2c2.5 0 4.5 2 4.5 4.5s-2 4.5-4.5 4.5-4.5-2-4.5-4.5 2-4.5 4.5-4.5zM50 68.4c2.5 0 4.5 2 4.5 4.5s-2 4.5-4.5 4.5-4.5-2-4.5-4.5c0-2.4 2-4.5 4.5-4.5zm0 18.2c2.5 0 4.5 2 4.5 4.5s-2 4.5-4.5 4.5-4.5-2-4.5-4.5 2-4.5 4.5-4.5zm18.2-27.3c2.5 0 4.5 2 4.5 4.5s-2 4.5-4.5 4.5-4.5-2-4.5-4.5c-.1-2.4 2-4.5 4.5-4.5zm0 18.2c2.5 0 4.5 2 4.5 4.5s-2 4.5-4.5 4.5-4.5-2-4.5-4.5c-.1-2.5 2-4.5 4.5-4.5z"/></symbol><symbol viewBox="0 0 100 100" id="sunrise" xmlns="http://www.w3.org/2000/svg"><path d="M26.4 33l-5.9-5.9c-1.6-1.6-4.3-1.6-5.9 0-1.6 1.6-1.6 4.3 0 5.9l5.9 5.9c1.6 1.6 4.3 1.6 5.9 0 1.7-1.6 1.7-4.2 0-5.9zm69.4 25.3h-8.3c-2.3 0-4.2 1.9-4.2 4.2 0 2.3 1.9 4.2 4.2 4.2h8.3c2.3 0 4.2-1.9 4.2-4.2 0-2.3-1.9-4.2-4.2-4.2zm-83.3 0H4.2c-2.3 0-4.2 1.9-4.2 4.2 0 2.3 1.9 4.2 4.2 4.2h8.3c2.3 0 4.2-1.9 4.2-4.2 0-2.3-1.9-4.2-4.2-4.2zm58.3 20.9H29.2c-2.3 0-4.2 1.9-4.2 4.2 0 2.3 1.9 4.2 4.2 4.2h41.7c2.3 0 4.2-1.9 4.2-4.2-.1-2.4-2-4.2-4.3-4.2zm14.6-52.1c-1.6-1.6-4.3-1.6-5.9 0L73.6 33c-1.6 1.6-1.6 4.3 0 5.9 1.6 1.6 4.3 1.6 5.9 0l5.9-5.9c1.6-1.6 1.6-4.2 0-5.9zM50 29.2c2.3 0 4.2-1.9 4.2-4.2v-8.3c0-2.3-1.9-4.2-4.2-4.2-2.3 0-4.2 1.9-4.2 4.2V25c0 2.3 1.9 4.2 4.2 4.2zm0 8.3c-13.8 0-25 11.2-25 25 0 2.9.5 5.7 1.5 8.3h9.1c-1.4-2.5-2.2-5.3-2.2-8.3 0-9.2 7.5-16.7 16.7-16.7s16.7 7.5 16.7 16.7c0 3-.8 5.9-2.2 8.3h9.1c.9-2.6 1.5-5.4 1.5-8.3-.2-13.8-11.4-25-25.2-25zm0 33.9c1.2 0 2.1-.9 2.1-2.1v-8l5.3 5.3c.8.8 2.1.8 2.9 0 .8-.8.8-2.1 0-2.9l-8.8-8.8c-.8-.8-2.1-.8-2.9 0l-8.8 8.8c-.8.8-.8 2.1 0 2.9.8.8 2.1.8 2.9 0l5.3-5.3v8c-.1 1.1.8 2.1 2 2.1z"/></symbol><symbol viewBox="0 0 100 100" id="sunset" xmlns="http://www.w3.org/2000/svg"><path d="M95.8 66.7h-8.3c-2.3 0-4.2-1.9-4.2-4.2 0-2.3 1.9-4.2 4.2-4.2h8.3c2.3 0 4.2 1.9 4.2 4.2 0 2.3-1.9 4.2-4.2 4.2zM79.5 38.9c-1.6 1.6-4.3 1.6-5.9 0-1.6-1.6-1.6-4.3 0-5.9l5.9-5.9c1.6-1.6 4.3-1.6 5.9 0 1.6 1.6 1.6 4.3 0 5.9l-5.9 5.9zm-6 31.9h-9.1c1.4-2.5 2.2-5.3 2.2-8.3 0-9.2-7.5-16.7-16.7-16.7s-16.7 7.5-16.7 16.7c0 3 .8 5.9 2.3 8.3h-9.1c-.9-2.6-1.5-5.4-1.5-8.3 0-13.8 11.2-25 25-25s25 11.2 25 25c.1 2.9-.4 5.7-1.4 8.3zM50 29.2c-2.3 0-4.2-1.9-4.2-4.2v-8.3c0-2.3 1.9-4.2 4.2-4.2 2.3 0 4.2 1.9 4.2 4.2V25c0 2.3-1.9 4.2-4.2 4.2zm-29.5 9.7L14.6 33c-1.6-1.6-1.6-4.3 0-5.9 1.6-1.6 4.3-1.6 5.9 0l5.9 5.9c1.6 1.6 1.6 4.3 0 5.9-1.6 1.7-4.2 1.7-5.9 0zm-3.8 23.6c0 2.3-1.9 4.2-4.2 4.2H4.2c-2.3 0-4.2-1.9-4.2-4.2 0-2.3 1.9-4.2 4.2-4.2h8.3c2.3 0 4.2 1.9 4.2 4.2zM50 54.2c1.2 0 2.1.9 2.1 2.1v8l5.3-5.3c.8-.8 2.1-.8 2.9 0s.8 2.1 0 2.9l-8.8 8.8c-.8.8-2.1.8-2.9 0l-8.8-8.8c-.8-.8-.8-2.1 0-2.9.8-.8 2.1-.8 2.9 0l5.3 5.3v-8c-.1-1.2.8-2.1 2-2.1zm-20.8 25h41.7c2.3 0 4.2 1.9 4.2 4.2 0 2.3-1.9 4.2-4.2 4.2H29.2c-2.3 0-4.2-1.9-4.2-4.2 0-2.4 1.9-4.2 4.2-4.2z"/></symbol><symbol viewBox="0 0 100 100" id="thunderstorm" xmlns="http://www.w3.org/2000/svg"><path d="M72.6 72.9h-2.4l8.1-10c7.2-2.4 12.4-9.2 12.4-17.2 0-10-8.1-18.1-18.1-18.1-3.6 0-7 1.1-9.8 2.9-2.8-12-13.5-21-26.4-21-15 0-27.1 12.2-27.1 27.1 0 12.3 8.2 22.7 19.5 26l-3.1 8.5C11 66.7.2 52.9.2 36.7.2 16.7 16.4.5 36.4.5 50 .5 61.8 8 68 19c1.5-.3 3-.5 4.6-.5 15 0 27.1 12.1 27.1 27.1S87.6 72.9 72.6 72.9zM45.5 41.2h22.6L54.5 63.8h15.8L41 100l8.1-27.1H34.2l11.3-31.7z"/></symbol><symbol viewBox="0 0 100 100" id="tornado" xmlns="http://www.w3.org/2000/svg"><path d="M95.2 17.1H4.8C2.1 17.1 0 15 0 12.4s2.1-4.8 4.8-4.8h90.5c2.6 0 4.8 2.1 4.8 4.8-.1 2.6-2.2 4.7-4.9 4.7zM9.5 26.6H81c2.6 0 4.8 2.1 4.8 4.8s-2.1 4.8-4.8 4.8H9.5c-2.6 0-4.8-2.1-4.8-4.8.1-2.6 2.2-4.8 4.8-4.8zm28.6 19.1h52.4c2.6 0 4.8 2.1 4.8 4.8 0 2.6-2.1 4.8-4.8 4.8H38.1c-2.6 0-4.8-2.1-4.8-4.8 0-2.7 2.2-4.8 4.8-4.8zm4.8 38.1h14.3c2.6 0 4.8 2.1 4.8 4.8 0 2.6-2.1 4.8-4.8 4.8H42.9c-2.6 0-4.8-2.1-4.8-4.8 0-2.7 2.1-4.8 4.8-4.8zm2.3-14.3c0-2.6 2.1-4.8 4.8-4.8h33.3c2.6 0 4.8 2.1 4.8 4.8 0 2.6-2.1 4.8-4.8 4.8H50c-2.6 0-4.8-2.2-4.8-4.8z"/></symbol><symbol viewBox="0 0 100 100" id="wind" xmlns="http://www.w3.org/2000/svg"><path d="M86.4 54.5h-6.8c-2.5 0-4.5-2-4.5-4.5s2-4.5 4.5-4.5h6.8c2.5 0 4.5-2 4.5-4.5s-2-4.5-4.5-4.5-4.5-2-4.5-4.5 2-4.5 4.5-4.5c.3 0 .6 0 .9.1 7.1.5 12.7 6.3 12.7 13.5 0 7.3-6.1 13.4-13.6 13.4zm-22.8-9h-50c-2.5 0-4.5 2-4.5 4.5s2 4.5 4.5 4.5h50c7.5 0 13.6 6.1 13.6 13.6 0 7.2-5.6 13.1-12.7 13.5-.3.1-.6.1-.9.1-2.5 0-4.5-2-4.5-4.5s2-4.5 4.5-4.5 4.5-2 4.5-4.5-2-4.5-4.5-4.5H13.7C6.1 63.6 0 57.5 0 50c0-7.2 5.6-13.1 12.7-13.5.3-.1.6-.1.9-.1h49.9c2.5 0 4.5-2 4.5-4.5s-2-4.5-4.5-4.5-4.5-2-4.5-4.5 2-4.5 4.5-4.5c.3 0 .6 0 .9.1 7.1.5 12.7 6.3 12.7 13.5.2 7.3-5.9 13.5-13.5 13.5z"/></symbol></svg>